<svg width="20" height="20" viewBox="0 0 20 20" fill="none" xmlns="http://www.w3.org/2000/svg">
<circle cx="10" cy="10" r="10" fill="#595A90"/>
<path d="M8.52734 8.52009L6.67134 8.39209C6.63934 8.10409 6.62334 7.90676 6.62334 7.80009C6.62334 6.86142 6.95401 6.06142 7.61534 5.40009C8.28734 4.72809 9.18868 4.39209 10.3193 4.39209C11.4287 4.39209 12.314 4.70676 12.9753 5.33609C13.6367 5.96542 13.9673 6.73876 13.9673 7.65609C13.9673 8.97876 13.3007 10.0508 11.9673 10.8721L9.95134 12.1201C9.36468 12.4721 9.01268 12.8668 8.89534 13.3041H14.0313V15.0001H6.52734C6.54868 14.0721 6.74601 13.2614 7.11934 12.5681C7.49268 11.8748 8.11668 11.2561 8.99134 10.7121L10.7033 9.64009C11.5887 9.08542 12.0313 8.43476 12.0313 7.68809C12.0313 7.22942 11.8767 6.84542 11.5673 6.53609C11.2687 6.22676 10.842 6.07209 10.2873 6.07209C9.70068 6.07209 9.25268 6.25342 8.94334 6.61609C8.63401 6.96809 8.47934 7.42676 8.47934 7.99209L8.52734 8.52009Z" fill="white"/>
</svg>
