<svg width="20" height="20" viewBox="0 0 20 20" fill="none" xmlns="http://www.w3.org/2000/svg">
<circle cx="10" cy="10" r="10" fill="#595A90"/>
<path d="M9.50402 11.2958L8.62402 9.87184L11.488 7.31184H6.76802V5.63184H13.968V7.23184L11.152 9.69584C11.984 9.71717 12.7093 10.0105 13.328 10.5758C13.9467 11.1412 14.256 11.8985 14.256 12.8478C14.256 13.7865 13.904 14.5865 13.2 15.2478C12.496 15.9092 11.552 16.2398 10.368 16.2398C9.21602 16.2398 8.28268 15.9252 7.56802 15.2958C6.86402 14.6558 6.48002 13.8772 6.41602 12.9598L8.28802 12.5758C8.30935 13.1732 8.51202 13.6585 8.89602 14.0318C9.29068 14.4052 9.77602 14.5918 10.352 14.5918C10.96 14.5918 11.44 14.4212 11.792 14.0798C12.144 13.7385 12.32 13.3225 12.32 12.8318C12.32 12.2772 12.1333 11.8558 11.76 11.5678C11.3973 11.2692 10.9707 11.1198 10.48 11.1198C10.064 11.1198 9.73868 11.1785 9.50402 11.2958Z" fill="white"/>
</svg>
