<svg width="30" height="30" viewBox="0 0 30 30" fill="none" xmlns="http://www.w3.org/2000/svg">
<circle cx="15" cy="15" r="15" fill="#E8F2FC"/>
<g clip-path="url(#clip0_7034_1117)">
<path d="M16.0652 15.0039L20.784 10.2851C21.0772 9.99213 21.0772 9.51684 20.784 9.22391C20.4908 8.93073 20.0161 8.93073 19.7229 9.22391L15.004 13.9428L10.2849 9.22391C9.99175 8.93073 9.51697 8.93073 9.22379 9.22391C8.93061 9.51684 8.93061 9.99213 9.22379 10.2851L13.9429 15.0039L9.22379 19.7228C8.93061 20.0157 8.93061 20.491 9.22379 20.7839C9.37038 20.9302 9.56249 21.0035 9.75436 21.0035C9.94623 21.0035 10.1383 20.9302 10.2849 20.7836L15.004 16.0648L19.7229 20.7836C19.8695 20.9302 20.0616 21.0035 20.2535 21.0035C20.4453 21.0035 20.6374 20.9302 20.784 20.7836C21.0772 20.4907 21.0772 20.0154 20.784 19.7225L16.0652 15.0039Z" fill="#4F9EEA"/>
</g>
<defs>
<clipPath id="clip0_7034_1117">
<rect width="12" height="12" fill="white" transform="translate(9.00391 9)"/>
</clipPath>
</defs>
</svg>
