<svg width="24" height="24" viewBox="0 0 24 24" fill="none" xmlns="http://www.w3.org/2000/svg">
<g clip-path="url(#clip0_2444_950)">
<path d="M8.91026 1.58117C8.9663 1.58077 9.02234 1.58037 9.08008 1.57996C9.14094 1.58 9.2018 1.58004 9.2645 1.58009C9.32975 1.57981 9.39499 1.57949 9.46024 1.57913C9.637 1.57831 9.81376 1.57809 9.99052 1.57803C10.1012 1.57796 10.2118 1.57776 10.3224 1.57751C10.709 1.57664 11.0956 1.57626 11.4822 1.57633C11.8416 1.57639 12.2009 1.5754 12.5603 1.57392C12.8695 1.57269 13.1788 1.57219 13.4881 1.57225C13.6725 1.57228 13.8569 1.57201 14.0412 1.57102C14.2149 1.5701 14.3885 1.57011 14.5622 1.57078C14.6555 1.57093 14.7488 1.57015 14.8421 1.56934C15.3441 1.57282 15.7676 1.66406 16.1386 2.01906C16.4711 2.39155 16.5619 2.75416 16.5565 3.24422C16.5563 3.31229 16.5563 3.31229 16.5561 3.38174C16.5555 3.52597 16.5544 3.67018 16.5532 3.81441C16.5527 3.91249 16.5523 4.01058 16.5519 4.10866C16.5508 4.34847 16.5492 4.58827 16.5473 4.82808C16.6027 4.82777 16.6581 4.82746 16.7152 4.82714C17.2399 4.82427 17.7647 4.82217 18.2894 4.8208C18.5591 4.82006 18.8288 4.81908 19.0985 4.81747C19.3593 4.81593 19.62 4.8151 19.8808 4.81474C19.9798 4.81448 20.0788 4.81398 20.1778 4.81321C21.1914 4.8057 22.025 4.93223 22.8754 5.53121C22.9052 5.55169 22.935 5.57217 22.9657 5.59328C23.5337 6.0281 23.8701 6.80433 23.9873 7.48996C24.0401 7.90784 24.0202 8.33656 24.0194 8.75685C24.0196 8.87441 24.02 8.99197 24.0203 9.10953C24.0211 9.39455 24.0212 9.67955 24.0209 9.96457C24.0208 10.1965 24.0208 10.4284 24.0211 10.6603C24.0211 10.6935 24.0211 10.7266 24.0212 10.7607C24.0212 10.8281 24.0213 10.8954 24.0214 10.9627C24.022 11.5928 24.0218 12.2229 24.0212 12.853C24.0208 13.4279 24.0214 14.0028 24.0225 14.5778C24.0237 15.1698 24.0241 15.7618 24.0238 16.3538C24.0236 16.6855 24.0237 17.0172 24.0246 17.3489C24.0253 17.661 24.0251 17.973 24.0242 18.2851C24.024 18.3991 24.0242 18.5132 24.0247 18.6272C24.0288 19.664 23.9292 20.6318 23.1677 21.4138C23.1158 21.4642 23.1158 21.4642 23.0629 21.5156C23.0198 21.5602 23.0198 21.5602 22.9758 21.6057C22.2391 22.3172 21.1969 22.4136 20.2271 22.4125C20.1533 22.4126 20.0796 22.4127 20.0058 22.4128C19.8037 22.4131 19.6017 22.4131 19.3997 22.413C19.1815 22.413 18.9633 22.4133 18.7451 22.4135C18.318 22.4139 17.8908 22.414 17.4636 22.414C17.1163 22.4141 16.7689 22.4142 16.4216 22.4143C15.4363 22.4147 14.451 22.4149 13.4657 22.4149C13.4126 22.4149 13.3595 22.4149 13.3048 22.4149C13.2517 22.4149 13.1985 22.4149 13.1438 22.4149C12.2824 22.4149 11.4211 22.4153 10.5598 22.416C9.6748 22.4167 8.78983 22.417 7.90485 22.4169C7.40824 22.4169 6.91162 22.417 6.415 22.4176C5.99217 22.418 5.56934 22.4181 5.14651 22.4178C4.93093 22.4176 4.71535 22.4176 4.49977 22.418C4.3021 22.4184 4.10444 22.4183 3.90678 22.4179C3.83559 22.4178 3.76439 22.4179 3.6932 22.4182C2.55673 22.4221 1.62276 22.1846 0.797303 21.375C0.770777 21.3496 0.74425 21.3242 0.71692 21.2981C-0.0150967 20.5291 -0.0274504 19.4509 -0.0238331 18.4615C-0.0240876 18.3439 -0.0244217 18.2263 -0.0248288 18.1087C-0.0255909 17.8242 -0.025485 17.5397 -0.0249389 17.2552C-0.0245132 17.0236 -0.024459 16.7921 -0.0246621 16.5606C-0.0247052 16.5109 -0.0247054 16.5109 -0.0247494 16.4603C-0.0248093 16.393 -0.0248701 16.3257 -0.0249318 16.2584C-0.0254647 15.6292 -0.024854 15.0001 -0.0238439 14.3709C-0.0230063 13.8326 -0.023152 13.2944 -0.0240162 12.7561C-0.0250226 12.129 -0.0254129 11.5019 -0.0248388 10.8748C-0.0247791 10.8077 -0.0247203 10.7407 -0.0246621 10.6737C-0.0246332 10.6407 -0.0246039 10.6077 -0.0245741 10.5738C-0.0244131 10.3429 -0.0246839 10.112 -0.025127 9.88111C-0.0257119 9.56961 -0.0252877 9.25812 -0.0242094 8.94662C-0.023963 8.8328 -0.02403 8.71897 -0.0244461 8.60515C-0.0269488 7.8506 -0.00192899 7.13356 0.36078 6.45113C0.38481 6.40482 0.38481 6.40482 0.409326 6.35757C0.799955 5.63534 1.47263 5.1986 2.24164 4.95699C2.57902 4.85672 2.87239 4.82139 3.22296 4.82276C3.26871 4.82275 3.31447 4.82275 3.36161 4.82274C3.51252 4.82277 3.66342 4.82314 3.81433 4.8235C3.91909 4.82359 4.02385 4.82366 4.12861 4.8237C4.40411 4.82388 4.6796 4.82434 4.95509 4.82486C5.23631 4.82534 5.51752 4.82556 5.79874 4.82579C6.35034 4.8263 6.90195 4.8271 7.45355 4.82808C7.45257 4.76972 7.45159 4.71136 7.45058 4.65124C7.44716 4.43258 7.44502 4.21392 7.44325 3.99524C7.44232 3.901 7.44104 3.80676 7.43941 3.71252C7.41865 2.48335 7.41865 2.48335 7.87891 2.0024C8.17996 1.73371 8.50224 1.58249 8.91026 1.58117ZM8.58734 2.73921C8.16552 3.29424 8.4848 4.13095 8.4848 4.82808C10.8051 4.82808 13.1254 4.82808 15.5161 4.82808C15.631 3.69863 15.631 3.69863 15.3754 2.67183C15.112 2.52953 14.7944 2.56496 14.503 2.56595C14.4138 2.5657 14.4138 2.5657 14.3228 2.56545C14.1602 2.56503 13.9976 2.56519 13.835 2.56549C13.6645 2.56573 13.494 2.56551 13.3235 2.56536C13.0373 2.56519 12.7511 2.56541 12.4649 2.56586C12.1343 2.56637 11.8038 2.5662 11.4732 2.56569C11.189 2.56526 10.9048 2.5652 10.6206 2.56545C10.451 2.56559 10.2815 2.56561 10.1119 2.5653C9.92284 2.56498 9.73378 2.56543 9.54471 2.56595C9.48874 2.56576 9.43278 2.56557 9.37511 2.56538C8.95599 2.56062 8.95599 2.56062 8.58734 2.73921ZM1.5268 6.58296C0.971607 7.25599 1.01118 8.04068 1.01348 8.86931C1.01329 8.9844 1.01304 9.09948 1.01274 9.21457C1.01216 9.49367 1.01224 9.77276 1.01265 10.0519C1.01297 10.2789 1.01301 10.5059 1.01286 10.7329C1.01284 10.7653 1.01282 10.7977 1.01279 10.8311C1.01275 10.897 1.0127 10.9628 1.01266 11.0287C1.01226 11.6451 1.01272 12.2615 1.01347 12.8779C1.0141 13.4058 1.01399 13.9337 1.01334 14.4616C1.01259 15.0759 1.0123 15.6902 1.01273 16.3046C1.01277 16.3702 1.01282 16.4358 1.01286 16.5014C1.01288 16.5337 1.0129 16.566 1.01293 16.5992C1.01305 16.8257 1.01284 17.0522 1.01251 17.2787C1.01207 17.5841 1.01239 17.8894 1.0132 18.1947C1.01338 18.3065 1.01333 18.4183 1.01302 18.5301C1.01087 19.3831 1.03242 20.1129 1.64105 20.7727C2.10193 21.1985 2.74327 21.3803 3.35946 21.3812C3.3898 21.3814 3.42013 21.3815 3.45138 21.3816C3.55288 21.3819 3.65437 21.3819 3.75587 21.3819C3.82944 21.382 3.903 21.3822 3.97657 21.3824C4.17865 21.3828 4.38072 21.383 4.5828 21.3831C4.8008 21.3833 5.01879 21.3838 5.23678 21.3842C5.76323 21.3851 6.28968 21.3856 6.81613 21.386C7.06423 21.3862 7.31232 21.3865 7.56042 21.3867C8.38548 21.3875 9.21054 21.3882 10.0356 21.3885C10.2496 21.3886 10.4637 21.3887 10.6777 21.3888C10.7309 21.3888 10.7841 21.3888 10.8389 21.3889C11.7001 21.3893 12.5614 21.3904 13.4226 21.392C14.3074 21.3935 15.1922 21.3944 16.0771 21.3945C16.5736 21.3946 17.0701 21.395 17.5667 21.3962C17.9897 21.3972 18.4127 21.3976 18.8356 21.3972C19.0512 21.3969 19.2668 21.397 19.4824 21.3979C19.6803 21.3988 19.8781 21.3987 20.076 21.398C20.1471 21.3979 20.2182 21.3981 20.2893 21.3986C21.0763 21.4045 21.818 21.2662 22.4136 20.7193C22.6713 20.4393 22.828 20.1001 22.9223 19.7343C22.9304 19.7033 22.9386 19.6723 22.9469 19.6404C22.9792 19.4365 22.9759 19.2351 22.9758 19.0289C22.9759 18.981 22.976 18.9332 22.9762 18.8839C22.9766 18.7233 22.9767 18.5628 22.9767 18.4022C22.9769 18.2872 22.9772 18.1722 22.9774 18.0571C22.9781 17.7444 22.9784 17.4316 22.9786 17.1189C22.9787 16.9234 22.9789 16.728 22.9791 16.5325C22.9797 15.9909 22.9802 15.4493 22.9803 14.9077C22.9803 14.8731 22.9803 14.8384 22.9803 14.8027C22.9804 14.768 22.9804 14.7333 22.9804 14.6975C22.9804 14.6271 22.9804 14.5567 22.9804 14.4864C22.9804 14.4515 22.9805 14.4165 22.9805 14.3806C22.9807 13.8155 22.9815 13.2504 22.9826 12.6854C22.9837 12.1046 22.9843 11.5238 22.9843 10.9431C22.9844 10.6172 22.9846 10.2914 22.9855 9.96559C22.9863 9.65891 22.9864 9.35223 22.9859 9.04555C22.9859 8.93323 22.9861 8.82092 22.9866 8.7086C22.9898 7.8911 22.9878 7.1151 22.395 6.4775C21.7823 5.92202 21.0279 5.83038 20.2319 5.83552C20.1576 5.83531 20.0832 5.83501 20.0089 5.83464C19.8068 5.83386 19.6047 5.83424 19.4026 5.83482C19.1838 5.83525 18.965 5.83459 18.7461 5.83407C18.3184 5.83324 17.8906 5.83342 17.4628 5.83396C17.1149 5.83439 16.7671 5.83444 16.4192 5.83424C16.3447 5.8342 16.3447 5.8342 16.2688 5.83415C16.1679 5.83409 16.0671 5.83403 15.9662 5.83397C15.0219 5.83344 14.0777 5.83405 13.1334 5.83506C12.3243 5.8359 11.5153 5.83575 10.7062 5.83489C9.76519 5.83388 8.82414 5.83349 7.88309 5.83406C7.78261 5.83412 7.68213 5.83418 7.58166 5.83424C7.53223 5.83427 7.4828 5.8343 7.43188 5.83433C7.08469 5.83449 6.73751 5.83422 6.39033 5.83378C5.96684 5.83325 5.54335 5.8334 5.11986 5.83439C4.90407 5.83488 4.68829 5.83508 4.4725 5.83446C4.27448 5.83389 4.07649 5.83421 3.87848 5.8352C3.80733 5.83541 3.73617 5.83531 3.66502 5.83485C2.85351 5.83002 2.10383 5.96888 1.5268 6.58296Z" fill="white"/>
<path d="M10.6116 8.50706C10.6617 8.50657 10.6617 8.50657 10.7128 8.50606C10.8226 8.50524 10.9323 8.50578 11.042 8.50642C11.1187 8.50629 11.1954 8.50611 11.2721 8.50587C11.4326 8.5056 11.593 8.506 11.7534 8.50688C11.9587 8.50794 12.1639 8.50733 12.3691 8.50621C12.5274 8.50553 12.6856 8.50574 12.8439 8.50623C12.9196 8.50635 12.9952 8.5062 13.0709 8.50577C13.1768 8.50529 13.2826 8.50602 13.3885 8.50706C13.4788 8.50728 13.4788 8.50728 13.5708 8.50751C13.8284 8.545 13.9699 8.65914 14.1259 8.86248C14.2405 9.08604 14.2266 9.31509 14.2215 9.56092C14.2212 9.60936 14.2209 9.6578 14.2207 9.7077C14.2196 9.86149 14.2173 10.0152 14.2149 10.169C14.2139 10.2737 14.2131 10.3783 14.2123 10.483C14.2103 10.7387 14.2071 10.9944 14.2032 11.2501C14.2289 11.2498 14.2546 11.2494 14.281 11.2491C14.5495 11.246 14.8179 11.2439 15.0864 11.2423C15.1864 11.2416 15.2865 11.2407 15.3866 11.2395C15.5307 11.2377 15.6749 11.237 15.8191 11.2363C15.8635 11.2356 15.908 11.2349 15.9538 11.2341C16.287 11.2341 16.5112 11.2814 16.7725 11.502C16.9528 11.7183 16.9806 11.899 16.9824 12.177C16.9827 12.208 16.983 12.239 16.9834 12.2709C16.9843 12.3728 16.9844 12.4747 16.9845 12.5767C16.9848 12.648 16.9852 12.7192 16.9855 12.7905C16.986 12.9398 16.9862 13.0891 16.9862 13.2384C16.9862 13.429 16.9874 13.6195 16.9891 13.81C16.9901 13.9573 16.9903 14.1045 16.9902 14.2517C16.9903 14.3219 16.9908 14.3921 16.9915 14.4623C16.998 15.1545 16.998 15.1545 16.7813 15.4688C16.4713 15.7193 16.1326 15.7099 15.755 15.7078C15.7106 15.7077 15.6662 15.7076 15.6204 15.7076C15.4791 15.7073 15.3377 15.7067 15.1963 15.7061C15.1003 15.7059 15.0043 15.7057 14.9082 15.7055C14.6732 15.705 14.4382 15.7042 14.2032 15.7032C14.2036 15.7428 14.2036 15.7428 14.2041 15.7832C14.2072 16.0584 14.2094 16.3337 14.2109 16.609C14.2116 16.7117 14.2126 16.8143 14.2138 16.917C14.2155 17.0648 14.2163 17.2125 14.2169 17.3603C14.2176 17.406 14.2184 17.4517 14.2191 17.4988C14.2192 17.7835 14.1938 18 13.9906 18.2178C13.7612 18.3932 13.6609 18.428 13.3723 18.4302C13.3399 18.4305 13.3075 18.4309 13.2741 18.4312C13.1666 18.4321 13.0591 18.4326 12.9516 18.4331C12.9149 18.4333 12.8782 18.4335 12.8403 18.4337C12.6457 18.4347 12.4511 18.4353 12.2565 18.4358C12.0559 18.4363 11.8554 18.4379 11.6548 18.4398C11.5002 18.441 11.3457 18.4414 11.1911 18.4416C11.1172 18.4418 11.0433 18.4423 10.9694 18.4432C10.8656 18.4443 10.7619 18.4443 10.6581 18.444C10.5992 18.4443 10.5402 18.4445 10.4795 18.4448C10.213 18.4083 10.0401 18.3052 9.87131 18.0908C9.76004 17.8673 9.77352 17.6368 9.77861 17.3923C9.77887 17.3439 9.77914 17.2955 9.77941 17.2456C9.78046 17.0918 9.78281 16.938 9.7852 16.7843C9.78614 16.6796 9.787 16.575 9.78776 16.4703C9.78982 16.2146 9.79296 15.9589 9.79692 15.7032C9.70864 15.7043 9.70864 15.7043 9.61859 15.7054C9.3987 15.708 9.17882 15.7096 8.95893 15.7109C8.86404 15.7116 8.76916 15.7126 8.67429 15.7138C8.53733 15.7155 8.40038 15.7163 8.26341 15.7169C8.2215 15.7177 8.17959 15.7184 8.13641 15.7191C7.7947 15.7192 7.49242 15.6701 7.22172 15.4512C7.04961 15.2322 7.01944 15.052 7.01768 14.7763C7.01736 14.7453 7.01705 14.7143 7.01672 14.6824C7.01583 14.5805 7.01565 14.4785 7.01555 14.3766C7.01525 14.3053 7.01493 14.234 7.0146 14.1627C7.01404 14.0135 7.01387 13.8642 7.01392 13.7149C7.01393 13.5243 7.01265 13.3338 7.01104 13.1432C7.00999 12.996 7.0098 12.8488 7.00985 12.7015C7.00974 12.6313 7.00933 12.5611 7.0086 12.4909C7.00213 11.8022 7.00213 11.8022 7.21879 11.4844C7.42631 11.3193 7.59103 11.244 7.85457 11.2447C7.89773 11.2448 7.94089 11.2448 7.98536 11.2448C8.05502 11.2451 8.05502 11.2451 8.12608 11.2455C8.17374 11.2456 8.2214 11.2456 8.27051 11.2457C8.42287 11.246 8.57523 11.2465 8.72758 11.2471C8.83082 11.2474 8.93407 11.2476 9.03731 11.2478C9.29051 11.2483 9.54372 11.2491 9.79692 11.2501C9.7965 11.2232 9.79609 11.1963 9.79566 11.1686C9.7915 10.888 9.78868 10.6074 9.78662 10.3268C9.78568 10.2222 9.7844 10.1176 9.78277 10.013C9.78049 9.86229 9.77943 9.71163 9.77861 9.56092C9.77764 9.51443 9.77667 9.46793 9.77568 9.42002C9.77558 9.12856 9.80513 8.95257 9.98442 8.71882C10.1975 8.54754 10.34 8.50773 10.6116 8.50706ZM10.8282 9.56257C10.8183 10.3233 10.8183 10.3233 10.81 11.0841C10.8085 11.1797 10.8069 11.2752 10.8053 11.3707C10.805 11.4201 10.8047 11.4696 10.8044 11.5205C10.7957 11.9617 10.7957 11.9617 10.6407 12.1407C10.487 12.2431 10.4389 12.2468 10.2603 12.2494C10.1871 12.2508 10.1871 12.2508 10.1125 12.2522C10.0599 12.2528 10.0073 12.2533 9.95311 12.2539C9.8992 12.2548 9.8453 12.2557 9.78976 12.2566C9.61735 12.2594 9.44493 12.2616 9.27251 12.2637C9.15571 12.2655 9.03892 12.2674 8.92213 12.2692C8.63561 12.2738 8.34909 12.2775 8.06254 12.2813C8.06254 13.0548 8.06254 13.8282 8.06254 14.6251C8.78612 14.6368 8.78612 14.6368 9.50972 14.6475C9.60106 14.6491 9.6924 14.6508 9.78374 14.6525C9.85373 14.6533 9.85373 14.6533 9.92514 14.6541C10.192 14.6596 10.4376 14.6671 10.6875 14.7657C10.8317 15.0008 10.7978 15.318 10.8007 15.5871C10.8015 15.6329 10.8024 15.6787 10.8032 15.7259C10.8062 15.896 10.8083 16.0662 10.8106 16.2364C10.8164 16.6173 10.8222 16.9982 10.8282 17.3907C11.6016 17.3907 12.375 17.3907 13.1719 17.3907C13.1836 16.632 13.1836 16.632 13.1943 15.8734C13.196 15.7779 13.1977 15.6825 13.1994 15.5871C13.1999 15.5379 13.2004 15.4888 13.201 15.4381C13.211 14.9313 13.211 14.9313 13.3125 14.7657C13.6044 14.6506 13.9057 14.6561 14.2164 14.6525C14.2602 14.6517 14.3041 14.6509 14.3492 14.65C14.5115 14.6471 14.6737 14.6449 14.836 14.6426C15.1995 14.6368 15.563 14.631 15.9375 14.6251C15.9375 13.8516 15.9375 13.0782 15.9375 12.2813C15.7643 12.2801 15.5911 12.2789 15.4126 12.2777C15.2447 12.2759 15.0769 12.2737 14.909 12.2716C14.7924 12.2703 14.6758 12.2693 14.5591 12.2686C14.3914 12.2676 14.2238 12.2654 14.0561 12.263C13.978 12.2629 13.978 12.2629 13.8982 12.2628C13.5371 12.256 13.5371 12.256 13.351 12.1477C13.2217 11.995 13.2126 11.8683 13.2092 11.6752C13.2082 11.6276 13.2073 11.5801 13.2063 11.5311C13.2051 11.4562 13.2051 11.4562 13.204 11.3799C13.2031 11.334 13.2022 11.288 13.2013 11.2407C13.1981 11.069 13.1953 10.8973 13.1924 10.7257C13.1823 10.1499 13.1823 10.1499 13.1719 9.56257C12.3985 9.56257 11.625 9.56257 10.8282 9.56257Z" fill="white"/>
</g>
<defs>
<clipPath id="clip0_2444_950">
<rect width="24" height="24" fill="white"/>
</clipPath>
</defs>
</svg>
