<svg width="22" height="22" viewBox="0 0 22 22" fill="none" xmlns="http://www.w3.org/2000/svg">
<g clip-path="url(#clip0_2444_955)">
<path d="M7.69136 1.37494C7.72251 1.38392 7.75366 1.3929 7.78575 1.40215C8.98691 1.75969 10.1534 2.57959 10.8684 3.61468C10.8976 3.65545 10.9269 3.69622 10.957 3.73822C10.9853 3.73822 11.0137 3.73822 11.0429 3.73822C11.1145 3.65908 11.1145 3.65908 11.1906 3.5556C12.1178 2.37329 13.4188 1.44416 14.9365 1.22472C15.2497 1.18957 15.5648 1.18884 15.8796 1.18695C15.9242 1.18644 15.9242 1.18644 15.9697 1.18592C16.4183 1.18197 16.8358 1.23455 17.2734 1.33197C17.3085 1.33959 17.3437 1.34722 17.3799 1.35507C18.4394 1.60082 19.3367 2.17694 20.1093 2.92181C20.1508 2.95995 20.1508 2.95995 20.1931 2.99886C21.2779 4.023 21.946 5.69729 22.0069 7.17166C22.0077 7.23237 22.0083 7.29309 22.0087 7.3538C22.0089 7.38683 22.0092 7.41986 22.0094 7.45389C22.0098 7.52369 22.0101 7.5935 22.0103 7.6633C22.0107 7.7673 22.012 7.87127 22.0134 7.97526C22.0175 8.57899 21.9447 9.1694 21.7771 9.75116C21.7681 9.78255 21.7591 9.81394 21.7499 9.84628C21.4542 10.838 20.9484 11.7689 20.3242 12.5898C20.3042 12.6162 20.2843 12.6426 20.2637 12.6698C19.8944 13.1561 19.5068 13.6355 19.068 14.061C18.9945 14.1343 18.9276 14.2104 18.8605 14.2897C18.5372 14.6652 18.177 15.023 17.7984 15.3426C17.6558 15.4669 17.5187 15.597 17.3808 15.7265C17.1883 15.907 16.9954 16.086 16.7954 16.2581C16.6981 16.3425 16.6032 16.4293 16.508 16.5161C16.3592 16.6505 16.2075 16.7795 16.0515 16.9055C15.888 17.0376 15.7308 17.174 15.5761 17.3163C15.3841 17.4931 15.1855 17.6588 14.9825 17.8227C14.8694 17.916 14.7606 18.0125 14.6523 18.1113C14.4675 18.2797 14.2759 18.4375 14.0816 18.5947C13.9313 18.719 13.7879 18.8502 13.6437 18.9816C13.5321 19.0807 13.4176 19.175 13.3015 19.2687C13.138 19.4009 12.9808 19.5373 12.8261 19.6796C12.6337 19.8564 12.4364 20.0245 12.2326 20.188C12.1565 20.2494 12.0813 20.312 12.007 20.3757C11.6588 20.6701 11.3392 20.8347 10.8744 20.8156C10.474 20.7587 10.1899 20.5742 9.90392 20.2978C9.79475 20.1933 9.68117 20.099 9.56319 20.0046C9.35812 19.8387 9.16385 19.6636 8.96985 19.4851C8.81576 19.3467 8.65528 19.2173 8.49417 19.0873C8.38113 18.994 8.27232 18.8975 8.16402 18.7988C8.01718 18.6649 7.86731 18.537 7.71284 18.412C7.52109 18.2569 7.33785 18.0948 7.15559 17.9286C7.04303 17.8286 6.92758 17.7333 6.8105 17.6386C6.61843 17.4832 6.4349 17.3208 6.25241 17.1544C6.14472 17.0587 6.03409 16.9685 5.92158 16.8786C5.66095 16.6679 5.4191 16.4388 5.17534 16.2091C5.04063 16.0822 4.90313 15.9592 4.76311 15.8383C4.09171 15.2575 3.40803 14.6499 2.83237 13.973C2.74858 13.8773 2.66144 13.7852 2.57379 13.6931C2.27232 13.3741 2.00426 13.0351 1.74403 12.682C1.67922 12.5945 1.61322 12.508 1.547 12.4216C0.565434 11.1153 -0.018154 9.54619 -0.0136104 7.91154C-0.013475 7.8102 -0.0144861 7.70892 -0.0155722 7.60759C-0.0175316 7.13726 0.0350795 6.69099 0.12886 6.23041C0.137172 6.18947 0.145484 6.14853 0.154047 6.10635C0.174862 6.0118 0.197789 5.9184 0.222854 5.82489C0.231758 5.79164 0.240662 5.75839 0.249835 5.72413C0.559085 4.62434 1.15241 3.70084 1.93355 2.87885C1.97027 2.83797 1.97027 2.83797 2.00774 2.79626C2.81121 1.93099 4.01687 1.45117 5.1562 1.24603C5.19512 1.23867 5.23404 1.23131 5.27414 1.22373C6.05024 1.10907 6.94064 1.15364 7.69136 1.37494ZM2.59688 4.11151C1.51979 5.34409 1.24185 6.92056 1.33198 8.50775C1.36106 8.80178 1.42059 9.08393 1.50386 9.36713C1.51307 9.39857 1.52228 9.43001 1.53176 9.4624C1.83046 10.4457 2.37804 11.3144 3.00777 12.1171C3.05762 12.1809 3.05762 12.1809 3.10847 12.2459C3.34073 12.5358 3.5912 12.8071 3.84486 13.0781C3.90923 13.1474 3.97275 13.2175 4.036 13.2879C4.22308 13.4958 4.41026 13.6945 4.62514 13.8743C4.77248 14.0058 4.90992 14.1467 5.04878 14.287C5.23855 14.4785 5.42779 14.6671 5.63373 14.8413C5.73427 14.9266 5.83184 15.015 5.92964 15.1035C6.0852 15.2438 6.24202 15.3825 6.40012 15.52C6.49945 15.6075 6.59717 15.6965 6.69502 15.7856C6.88281 15.9553 7.07704 16.1152 7.27376 16.2744C7.42399 16.3987 7.5674 16.5297 7.7115 16.6611C7.82407 16.7611 7.93951 16.8564 8.05659 16.9511C8.24835 17.1062 8.43159 17.2684 8.61385 17.4345C8.72641 17.5346 8.84186 17.6298 8.95894 17.7245C9.15076 17.8797 9.33406 18.0419 9.51636 18.2081C9.62795 18.3073 9.74243 18.4015 9.8586 18.4953C10.0241 18.629 10.1829 18.7674 10.3393 18.9116C10.5571 19.1104 10.5571 19.1104 10.7797 19.3036C10.8234 19.3412 10.8234 19.3412 10.868 19.3795C10.9568 19.4328 10.9568 19.4328 11.0604 19.3998C11.1955 19.3223 11.3025 19.226 11.4135 19.1183C11.6174 18.9258 11.8278 18.7461 12.0463 18.5702C12.1589 18.4775 12.2672 18.3814 12.375 18.2831C12.5597 18.1147 12.7513 17.9569 12.9456 17.7997C13.0591 17.7059 13.1685 17.6089 13.2773 17.5097C13.4621 17.3413 13.6537 17.1835 13.848 17.0263C13.9983 16.9019 14.1419 16.7707 14.2861 16.6393C14.3967 16.541 14.5102 16.4477 14.6254 16.3549C14.8466 16.176 15.0555 15.9863 15.2641 15.7931C15.4575 15.6145 15.6559 15.4423 15.8571 15.2725C16.4009 14.8124 16.9195 14.3274 17.4174 13.8181C17.4987 13.7387 17.578 13.6668 17.6655 13.5954C17.7673 13.5103 17.8499 13.4298 17.934 13.3283C18.0367 13.2076 18.1425 13.0948 18.2563 12.9846C18.4219 12.8209 18.5687 12.6465 18.714 12.4647C18.7889 12.3712 18.8644 12.2789 18.9413 12.1871C19.449 11.5758 19.8674 10.9075 20.1953 10.1835C20.2134 10.144 20.2134 10.144 20.2318 10.1038C20.4268 9.67127 20.5393 9.2309 20.625 8.76556C20.6363 8.70569 20.6363 8.70569 20.6479 8.6446C20.8593 7.19744 20.5208 5.67491 19.685 4.47675C19.0021 3.58604 18.1802 2.98034 17.1015 2.664C17.053 2.64938 17.0045 2.63476 16.9545 2.61969C15.8394 2.34219 14.6594 2.52695 13.6743 3.09956C13.3547 3.29359 13.0722 3.51978 12.8046 3.78119C12.7665 3.81841 12.7284 3.85563 12.6892 3.89398C12.6564 3.92766 12.6236 3.96134 12.5898 3.99603C12.5679 4.01683 12.546 4.03762 12.5235 4.05905C12.3314 4.24361 12.178 4.43945 12.0285 4.65936C11.4988 5.42852 11.4988 5.42852 11.2578 5.49994C10.9526 5.53787 10.7381 5.5255 10.4804 5.35272C10.3435 5.23987 10.2554 5.10412 10.1621 4.95477C10.1217 4.8932 10.0812 4.83172 10.0405 4.77031C10.0211 4.74066 10.0016 4.711 9.98154 4.68045C9.86012 4.50018 9.72171 4.33408 9.58199 4.16791C9.55844 4.13861 9.5349 4.10931 9.51065 4.07912C9.30457 3.83016 9.06328 3.63491 8.80855 3.43744C8.77232 3.40814 8.7361 3.37884 8.69878 3.34865C6.79703 1.87176 4.15814 2.45825 2.59688 4.11151Z" fill="white"/>
</g>
<defs>
<clipPath id="clip0_2444_955">
<rect width="22" height="22" fill="white"/>
</clipPath>
</defs>
</svg>
