<svg width="500" height="500" viewBox="0 0 500 500" fill="none" xmlns="http://www.w3.org/2000/svg">
<rect width="500" height="500" fill="#5355AC"/>
<path d="M259.357 120C240.429 120 225.071 125 212.214 132.857V123.929H154V380H212.214V287.857C225.071 295.714 240.429 300.714 259.357 300.714C306.143 300.714 345.429 261.786 345.429 210.357C345.429 158.571 306.143 120 259.357 120ZM247.929 253.214C235.429 253.214 222.929 249.643 212.214 237.5V183.214C222.929 171.071 235.429 167.143 247.929 167.143C271.5 167.143 288.643 186.429 288.643 210.357C288.643 234.286 271.5 253.214 247.929 253.214Z" fill="white"/>
</svg>
