<svg width="63" height="35" viewBox="0 0 63 35" fill="none" xmlns="http://www.w3.org/2000/svg">
<path d="M10.5789 8.89344C8.67828 8.89344 7.13627 9.39549 5.84529 10.1844V9.28791H0V35H5.84529V25.748C7.13627 26.5369 8.67828 27.0389 10.5789 27.0389C15.2766 27.0389 19.2213 23.1301 19.2213 17.9662C19.2213 12.7664 15.2766 8.89344 10.5789 8.89344ZM9.43135 22.2695C8.17623 22.2695 6.92111 21.9109 5.84529 20.6916V15.2408C6.92111 14.0215 8.17623 13.627 9.43135 13.627C11.7982 13.627 13.5195 15.5635 13.5195 17.9662C13.5195 20.3689 11.7982 22.2695 9.43135 22.2695Z" fill="white"/>
<path d="M32.8559 9.00102C30.274 9.00102 28.4092 9.82582 26.8672 11.1527V9.28791H21.0219V26.6803H26.8672V16.7111C28.2299 15.3842 30.0229 14.6311 32.8559 14.5236V9.00102Z" fill="white"/>
<path d="M38.0613 6.5625C39.9261 6.5625 41.4681 5.16393 41.4681 3.29918C41.4681 1.39856 39.9261 0 38.0613 0C36.1607 0 34.6546 1.39856 34.6546 3.29918C34.6546 5.16393 36.1607 6.5625 38.0613 6.5625ZM35.1925 9.28791V26.6803H41.0019V9.28791H35.1925Z" fill="white"/>
<path d="M56.8529 9.28791L52.693 19.3289L48.5332 9.28791H42.401L49.9318 26.6803H55.4543L62.985 9.28791H56.8529Z" fill="white"/>
</svg>
