<svg width="22" height="21" viewBox="0 0 22 21" fill="none" xmlns="http://www.w3.org/2000/svg">
<g clip-path="url(#clip0_2444_959)">
<path d="M12.5657 0.0591693C12.7974 0.266384 12.867 0.484253 12.8715 0.776606C12.871 0.832132 12.871 0.832132 12.8705 0.888779C12.8706 0.927802 12.8708 0.966825 12.871 1.00703C12.8711 1.08912 12.8708 1.17122 12.8701 1.25331C12.8691 1.37831 12.8701 1.50323 12.8712 1.62823C12.871 1.70834 12.8708 1.78845 12.8705 1.86856C12.8708 1.90557 12.8712 1.94259 12.8715 1.98073C12.867 2.27308 12.7974 2.49095 12.5657 2.69817C12.3564 2.78187 12.1703 2.78311 11.9453 2.75725C11.7419 2.68186 11.6133 2.54244 11.5156 2.36337C11.5126 2.29613 11.512 2.22879 11.5129 2.1615C11.5133 2.12566 11.5137 2.08981 11.5141 2.05288C11.5149 2.0116 11.5149 2.0116 11.5156 1.96949C10.8512 2.01926 10.8512 2.01926 10.2695 2.28459C10.2426 2.30444 10.2156 2.3243 10.1878 2.34475C9.90832 2.57494 9.73075 2.88734 9.70488 3.23177C9.69619 3.50827 9.75592 3.74622 9.8394 4.01067C9.85292 4.05502 9.86644 4.09936 9.88037 4.14504C9.92364 4.28653 9.96767 4.42781 10.0117 4.5691C10.0397 4.66027 10.0676 4.75146 10.0955 4.84266C10.1837 5.13034 10.273 5.41772 10.3625 5.70504C10.3787 5.7571 10.3949 5.80915 10.4111 5.86121C10.4871 6.10512 10.5632 6.34902 10.6393 6.59288C10.7263 6.87143 10.813 7.15006 10.8994 7.42876C10.967 7.64675 11.0349 7.86466 11.103 8.08253C11.1434 8.21164 11.1836 8.34078 11.2236 8.47C11.268 8.61355 11.3129 8.75698 11.358 8.90038C11.3708 8.94215 11.3836 8.98392 11.3968 9.02695C11.4831 9.2997 11.5949 9.55249 11.7305 9.8077C11.7499 9.84454 11.7693 9.88138 11.7893 9.91933C12.2281 10.7331 13.0542 11.2945 13.9706 11.5947C14.9649 11.9025 16.0047 11.7961 16.9396 11.3843C17.3532 11.1902 17.6809 10.9385 18.0039 10.6349C18.0334 10.6077 18.0628 10.5806 18.0932 10.5527C18.795 9.86591 18.9994 8.90679 19.2694 8.02914C19.3153 7.88003 19.3616 7.731 19.4078 7.58197C19.4852 7.3324 19.5623 7.08278 19.6393 6.83312C19.7479 6.48105 19.8568 6.12908 19.9659 5.77713C20.112 5.3054 20.258 4.83364 20.4036 4.36179C20.4268 4.28665 20.45 4.21152 20.4732 4.13639C20.487 4.09168 20.5008 4.04697 20.515 4.0009C20.527 3.96207 20.5389 3.92324 20.5513 3.88324C20.6629 3.51323 20.7065 3.09944 20.5013 2.75125C20.4854 2.72723 20.4695 2.70322 20.4531 2.67847C20.4172 2.61754 20.4172 2.61754 20.3806 2.55538C20.0079 2.13066 19.561 2.03854 19.0016 1.98257C18.9559 1.97825 18.9103 1.97393 18.8633 1.96949C18.8647 2.01803 18.8662 2.06657 18.8676 2.11658C18.8674 2.31126 18.8138 2.44075 18.6914 2.5997C18.5336 2.74087 18.4086 2.76789 18.1946 2.77448C18.0109 2.76764 17.8882 2.75358 17.7461 2.63908C17.5933 2.47952 17.5263 2.3882 17.5236 2.17739C17.5231 2.13873 17.5225 2.10007 17.522 2.06024C17.5215 1.99734 17.5215 1.99734 17.521 1.93318C17.5207 1.89014 17.5203 1.8471 17.52 1.80275C17.5194 1.7115 17.5189 1.62024 17.5186 1.52899C17.5178 1.38963 17.5159 1.2503 17.514 1.11095C17.5136 1.02233 17.5132 0.933707 17.513 0.845083C17.5122 0.803472 17.5114 0.761861 17.5107 0.718988C17.5114 0.478683 17.5299 0.34145 17.7031 0.157639C17.7253 0.13408 17.7474 0.110521 17.7703 0.0862486C17.9256 -0.0314091 18.1258 -0.0130653 18.3164 -0.010529C18.4865 0.00488172 18.5694 0.0485414 18.6914 0.157639C18.8546 0.369581 18.8708 0.533355 18.8633 0.787848C18.9173 0.785563 18.9714 0.783278 19.0271 0.780924C19.8211 0.757629 20.4519 0.904888 21.0627 1.39344C21.1323 1.45353 21.2013 1.51423 21.2695 1.57561C21.297 1.59983 21.3245 1.62405 21.3528 1.649C21.8113 2.08717 22.0228 2.7021 22.0242 3.29883C22.0265 3.34933 22.0265 3.34933 22.029 3.40084C22.0308 3.67174 21.9679 3.91815 21.8919 4.17774C21.8805 4.21703 21.8692 4.25632 21.8575 4.29681C21.7128 4.7938 21.559 5.28849 21.4049 5.78308C21.3794 5.86488 21.354 5.94668 21.3285 6.02849C21.2483 6.28633 21.1679 6.54415 21.0874 6.80193C20.9955 7.09616 20.904 7.39048 20.8128 7.68489C20.7415 7.91507 20.6698 8.14516 20.5979 8.37519C20.5553 8.51148 20.5128 8.6478 20.4707 8.78422C20.0067 10.2861 19.3312 11.6071 17.7891 12.4073C17.7607 12.4073 17.7323 12.4073 17.7031 12.4073C17.6978 12.4359 17.6924 12.4644 17.6868 12.4939C17.6607 12.6019 17.6245 12.6935 17.5768 12.795C17.5595 12.8321 17.5422 12.8693 17.5244 12.9076C17.496 12.9678 17.496 12.9678 17.467 13.0292C17.4472 13.0716 17.4274 13.1139 17.407 13.1575C17.3643 13.2489 17.3215 13.3401 17.2786 13.4314C17.2112 13.5752 17.1442 13.7192 17.0774 13.8632C16.8858 14.2763 16.6936 14.689 16.4931 15.0985C16.1217 15.8579 15.8105 16.5051 15.8151 17.3505C15.7967 18.0477 15.2947 18.7807 14.7866 19.2707C14.0363 19.924 13.1168 20.1937 12.0991 20.1852C11.2834 20.1643 10.5433 19.9137 9.92578 19.4184C9.88324 19.3878 9.88324 19.3878 9.83984 19.3565C9.18033 18.8677 8.76676 18.0813 8.66765 17.3168C8.62589 16.89 8.6302 16.4629 8.62947 16.0348C8.62916 15.8893 8.62848 15.7439 8.6277 15.5984C8.62546 15.1852 8.62338 14.772 8.62271 14.3588C8.62228 14.1051 8.62102 13.8514 8.61922 13.5978C8.61869 13.5017 8.61847 13.4056 8.61857 13.3095C8.62965 12.4656 8.62965 12.4656 8.27417 11.7008C8.2503 11.6679 8.22642 11.6351 8.20183 11.6012C7.81798 11.1265 7.33081 10.8421 6.70312 10.7136C5.91224 10.652 5.31477 10.791 4.68242 11.2391C4.14161 11.6827 3.95028 12.282 3.90401 12.9262C3.89267 13.1388 3.8879 13.3515 3.8833 13.5643C3.88165 13.6282 3.87998 13.6921 3.87827 13.756C3.8742 13.9104 3.87057 14.0648 3.86719 14.2192C3.90083 14.2262 3.93446 14.2333 3.96912 14.2405C4.50115 14.3563 4.96077 14.551 5.37109 14.8888C5.40638 14.9174 5.44166 14.9461 5.47801 14.9757C6.04878 15.4671 6.42827 16.1588 6.45975 16.8819C6.47319 17.6942 6.31743 18.468 5.69604 19.0836C5.61782 19.1573 5.53781 19.2287 5.45703 19.3002C5.42668 19.3293 5.39632 19.3583 5.36505 19.3882C4.80029 19.898 3.99444 20.1007 3.22266 20.1077C2.36678 20.0999 1.58057 19.8508 0.971497 19.2885C0.934496 19.2534 0.897496 19.2183 0.859375 19.1821C0.827692 19.1542 0.79601 19.1264 0.763367 19.0977C0.212608 18.585 -0.0142599 17.8567 -0.0214844 17.156C-0.0132799 16.3594 0.251888 15.6359 0.874649 15.0677C0.912148 15.0346 0.949646 15.0016 0.988281 14.9675C1.01647 14.9414 1.04467 14.9152 1.07372 14.8883C1.43826 14.5699 2.06105 14.2192 2.57812 14.2192C2.57755 14.1849 2.57755 14.1849 2.57697 14.1499C2.57313 13.9089 2.57056 13.668 2.56868 13.427C2.56783 13.3375 2.56666 13.2479 2.56516 13.1583C2.55682 12.6469 2.55797 12.1832 2.75 11.6983C2.7667 11.6554 2.7834 11.6124 2.80061 11.5681C2.99043 11.1004 3.3167 10.7124 3.69531 10.3591C3.72112 10.335 3.74694 10.3108 3.77353 10.2859C4.58991 9.57966 5.61549 9.4178 6.69624 9.44598C6.98577 9.4614 7.24603 9.52287 7.51953 9.61076C7.56506 9.62503 7.61059 9.6393 7.6575 9.654C8.57191 9.97183 9.27371 10.6428 9.68929 11.4409C9.89415 11.8824 9.97491 12.2901 9.97621 12.766C9.9765 12.8097 9.97678 12.8535 9.97708 12.8985C9.97768 12.9933 9.97819 13.0881 9.97862 13.1828C9.97933 13.3332 9.98033 13.4836 9.98141 13.634C9.98445 14.0616 9.98703 14.4892 9.98924 14.9168C9.99059 15.1786 9.99239 15.4404 9.9944 15.7022C9.99509 15.8016 9.99562 15.9009 9.99599 16.0003C9.99489 17.2847 9.99489 17.2847 10.7004 18.3597C11.208 18.8048 11.7823 18.9311 12.4624 18.9186C12.9942 18.8966 13.5006 18.6546 13.8789 18.3155C14.2116 17.9394 14.4224 17.5371 14.4805 17.0551C14.4856 17.0147 14.4908 16.9743 14.4961 16.9327C14.5277 16.449 14.3313 16.0737 14.1179 15.6396C14.0807 15.5618 14.0437 15.4841 14.0068 15.4062C13.9309 15.2466 13.8544 15.0872 13.7775 14.9279C13.6187 14.5985 13.4657 14.2668 13.3127 13.935C13.2681 13.8384 13.2233 13.7419 13.1784 13.6454C13.1643 13.6152 13.1503 13.5849 13.1358 13.5537C13.1083 13.4946 13.0807 13.4356 13.0531 13.3765C12.984 13.2283 12.9176 13.0797 12.8548 12.9291C12.8419 12.8987 12.829 12.8683 12.8157 12.8369C12.7914 12.7795 12.7677 12.7218 12.7447 12.664C12.6227 12.3775 12.3989 12.273 12.1172 12.1316C11.1785 11.5253 10.5535 10.695 10.1968 9.70383C10.1821 9.66304 10.1674 9.62225 10.1522 9.58022C9.97307 9.07766 9.81575 8.56927 9.65866 8.06065C9.61544 7.92086 9.57198 7.78114 9.52855 7.64141C9.45596 7.40769 9.38354 7.17393 9.31125 6.94013C9.22801 6.67094 9.14449 6.40183 9.06081 6.13276C8.97958 5.87151 8.89853 5.61022 8.81757 5.3489C8.7834 5.23861 8.74917 5.12834 8.71489 5.01809C8.6671 4.86438 8.6196 4.7106 8.57212 4.55681C8.5581 4.51183 8.54408 4.46685 8.52964 4.42051C8.27096 3.57952 8.22777 2.83567 8.69295 2.03949C9.09834 1.42929 9.67801 1.05241 10.4092 0.827236C10.7657 0.748172 11.1516 0.779024 11.5156 0.787848C11.5147 0.760985 11.5138 0.734123 11.5129 0.706446C11.5118 0.653443 11.5118 0.653443 11.5108 0.59937C11.5099 0.564384 11.509 0.529397 11.508 0.493351C11.5216 0.316156 11.6334 0.215118 11.7546 0.0862486C11.9654 -0.0733129 12.3338 -0.033596 12.5657 0.0591693ZM14.3516 12.9587C14.4372 13.1943 14.5249 13.4208 14.631 13.648C14.6449 13.678 14.6589 13.708 14.6732 13.739C14.7023 13.8016 14.7316 13.8642 14.7608 13.9268C14.8058 14.023 14.8502 14.1193 14.8946 14.2156C14.9231 14.2767 14.9516 14.3378 14.9801 14.3989C14.9934 14.4277 15.0066 14.4565 15.0203 14.4863C15.0814 14.6356 15.0814 14.6356 15.2109 14.7312C15.2859 14.5738 15.3607 14.4163 15.4354 14.2588C15.4607 14.2055 15.4861 14.1522 15.5114 14.099C15.5484 14.0213 15.5853 13.9435 15.6222 13.8657C15.6442 13.8193 15.6663 13.7729 15.689 13.7251C15.8055 13.4711 15.9157 13.2146 16.0273 12.9587C15.4743 12.9587 14.9213 12.9587 14.3516 12.9587ZM1.67645 16.081C1.33171 16.5091 1.28591 16.9732 1.33203 17.4884C1.43955 17.9659 1.76998 18.3454 2.19141 18.6306C2.67722 18.8783 3.20573 18.9433 3.75171 18.84C4.24555 18.6851 4.67038 18.3842 4.92596 17.963C5.14663 17.5277 5.21632 17.0035 5.04346 16.5406C4.8062 16.046 4.4333 15.6852 3.88632 15.4747C3.05576 15.2022 2.23268 15.4918 1.67645 16.081Z" fill="white"/>
<path d="M3.48075 16.5431C3.67909 16.6292 3.76987 16.7201 3.86747 16.8975C3.90309 17.1161 3.89858 17.31 3.79496 17.5105C3.66168 17.6393 3.55021 17.7152 3.35604 17.7418C3.09185 17.7421 2.9087 17.7423 2.70731 17.5671C2.54019 17.3528 2.54444 17.1528 2.57841 16.8975C2.76578 16.5349 3.07904 16.4981 3.48075 16.5431Z" fill="white"/>
</g>
<defs>
<clipPath id="clip0_2444_959">
<rect width="22" height="20.1667" fill="white"/>
</clipPath>
</defs>
</svg>
