<svg width="22" height="22" viewBox="0 0 22 22" fill="none" xmlns="http://www.w3.org/2000/svg">
<g clip-path="url(#clip0_2444_964)">
<path d="M10.9809 -0.0133857C11.0467 -0.0132468 11.0467 -0.0132468 11.1138 -0.0131051C11.743 -0.0109709 12.3579 0.00237108 12.9763 0.128948C13.0191 0.137257 13.0619 0.145565 13.106 0.154125C14.5696 0.443324 16.1086 0.986648 17.2879 1.9281C17.3114 1.9441 17.3349 1.96011 17.3591 1.9766C17.4851 1.94895 17.595 1.90098 17.7114 1.84619C18.1472 1.65998 18.6717 1.63737 19.1235 1.78862C19.6424 2.01588 19.9731 2.33697 20.1974 2.85679C20.3821 3.34845 20.3216 3.91427 20.1091 4.38285C20.0792 4.44384 20.0792 4.44384 20.0488 4.50605C20.0078 4.64636 20.0078 4.64636 20.0951 4.78267C20.1321 4.83436 20.17 4.88547 20.2084 4.93608C20.2491 4.99334 20.2896 5.05075 20.33 5.10829C20.3506 5.1376 20.3713 5.16692 20.3926 5.19712C20.5612 5.44382 20.7004 5.70866 20.8395 5.9727C20.8552 6.0021 20.8709 6.03149 20.887 6.06178C21.3686 6.97863 21.6838 8.0073 21.8708 9.02348C21.8777 9.05788 21.8846 9.09229 21.8917 9.12773C22.1277 10.3342 22.1172 11.773 21.8708 12.9766C21.8625 13.0194 21.8542 13.0623 21.8456 13.1064C21.4968 14.8719 20.7504 16.4658 19.6364 17.875C19.6015 17.9196 19.5666 17.9642 19.5307 18.0102C18.986 18.6793 18.3603 19.3039 17.6598 19.8086C17.6131 19.8437 17.5664 19.8788 17.5197 19.914C16.1788 20.9131 14.6182 21.569 12.9763 21.8711C12.9419 21.878 12.9074 21.885 12.872 21.8921C11.666 22.128 10.2262 22.1182 9.02313 21.8711C8.97962 21.8626 8.93611 21.8541 8.89129 21.8453C7.44101 21.5553 5.92784 21.0121 4.75748 20.0831C4.64185 20.0089 4.64185 20.0089 4.50906 20.0508C4.44642 20.0798 4.44642 20.0798 4.38251 20.1094C3.91035 20.3236 3.37507 20.3786 2.87591 20.2115C2.35702 19.9842 2.0263 19.6631 1.80203 19.1433C1.61728 18.6516 1.67775 18.0858 1.89032 17.6172C1.9102 17.5766 1.93009 17.5359 1.95058 17.494C1.99156 17.3537 1.99156 17.3537 1.90425 17.2174C1.86725 17.1657 1.82942 17.1146 1.79095 17.064C1.75025 17.0067 1.70975 16.9493 1.66943 16.8918C1.6384 16.8478 1.6384 16.8478 1.60674 16.803C1.4382 16.5563 1.29894 16.2914 1.15985 16.0274C1.14419 15.998 1.12853 15.9686 1.11239 15.9383C0.6308 15.0215 0.315612 13.9928 0.1286 12.9766C0.118235 12.925 0.118235 12.925 0.107661 12.8724C-0.127641 11.6694 -0.122642 10.223 0.1286 9.02348C0.137137 8.98159 0.145673 8.9397 0.154469 8.89655C0.401287 7.71663 0.922634 5.40183 2.01066 4.67491C2.15534 4.61973 2.24909 4.64517 2.3952 4.68901C2.6028 4.80877 2.6028 4.80877 2.66376 4.94145C2.68531 5.20905 2.6548 5.33865 2.50262 5.56718C2.31762 5.85531 2.1553 6.15214 1.99774 6.4561C1.9637 6.52136 1.9637 6.52136 1.92896 6.58795C1.81146 6.81215 1.81146 6.81215 1.71844 7.04692C3.09387 7.04692 4.4693 7.04692 5.88641 7.04692C5.90059 6.96184 5.91477 6.87676 5.92938 6.7891C6.13444 6.29594 6.49252 5.96364 6.97909 5.75634C7.16343 5.68962 7.32103 5.65667 7.51922 5.67192C7.52083 5.6476 7.52244 5.62328 7.52409 5.59822C7.55008 5.27929 7.61548 4.97537 7.6911 4.66484C7.71088 4.5836 7.71088 4.5836 7.73106 4.50071C8.02668 3.30985 8.45004 2.09247 9.15204 1.07426C7.74218 1.38774 6.43006 1.86946 5.24188 2.70707C5.06921 2.82219 4.92922 2.82292 4.72626 2.79301C4.60292 2.71593 4.53327 2.66485 4.46844 2.5352C4.43845 2.23526 4.43845 2.23526 4.55405 2.0664C4.69641 1.90697 4.86736 1.80009 5.04852 1.68925C5.10217 1.65607 5.10217 1.65607 5.15691 1.62223C6.43932 0.840272 7.83619 0.311196 9.32391 0.0859795C9.37199 0.07836 9.42006 0.0707405 9.46959 0.0628901C9.97327 -0.00935795 10.4727 -0.0153124 10.9809 -0.0133857ZM9.92547 1.58989C9.05833 2.78277 8.60901 4.35706 8.3786 5.80082C8.41593 5.82475 8.45326 5.84868 8.49173 5.87333C8.99944 6.2061 9.1611 6.44991 9.40985 7.04692C10.8562 7.04692 12.3025 7.04692 13.7927 7.04692C13.7612 6.63797 13.7181 6.26605 13.6396 5.86796C13.634 5.83958 13.6285 5.8112 13.6227 5.78196C13.3128 4.20965 12.8842 2.06908 11.5187 1.04741C10.8835 0.627145 10.322 1.07593 9.92547 1.58989ZM12.8044 1.03129C12.8684 1.16505 12.9414 1.29277 13.0157 1.42105C13.9746 3.08933 14.4062 4.96254 14.6762 6.85353C14.6896 6.96049 14.6896 6.96049 14.738 7.04692C16.5813 7.04692 18.4247 7.04692 20.3239 7.04692C20.0143 6.39339 19.7195 5.77811 19.2927 5.19926C19.2706 5.20546 19.2486 5.21167 19.2259 5.21806C18.5907 5.37203 17.9771 5.33722 17.4128 4.99784C17.048 4.73815 16.81 4.34544 16.7145 3.9102C16.7093 3.78615 16.7064 3.66363 16.7065 3.53959C16.7065 3.50515 16.7064 3.4707 16.7064 3.43521C16.7086 3.18483 16.7324 2.94905 16.8005 2.70707C15.6399 1.83941 14.2255 1.27882 12.8044 1.03129ZM17.798 2.87643C17.5705 3.16841 17.5418 3.41501 17.5739 3.78129C17.649 4.06955 17.8393 4.23438 18.0895 4.38285C18.3506 4.46987 18.6676 4.47311 18.9221 4.36137C19.1431 4.23264 19.2985 4.02165 19.3786 3.78129C19.407 3.46697 19.4116 3.17676 19.2067 2.92192C18.9342 2.67134 18.7188 2.60467 18.3505 2.60955C18.1156 2.63015 17.9578 2.70262 17.798 2.87643ZM6.96986 6.82956C6.74241 7.12153 6.71367 7.36814 6.74579 7.73442C6.82084 8.02268 7.01122 8.18751 7.26141 8.33598C7.52247 8.423 7.83944 8.42623 8.09393 8.3145C8.31494 8.18577 8.47035 7.97478 8.55047 7.73442C8.57888 7.4201 8.58349 7.12988 8.3786 6.87504C8.10609 6.62446 7.89066 6.55779 7.52241 6.56268C7.28751 6.58327 7.12968 6.65575 6.96986 6.82956ZM1.37469 7.90629C1.22069 8.31697 1.12073 8.72386 1.03094 9.15239C1.0236 9.18701 1.01625 9.22164 1.00868 9.25731C0.700443 10.7934 0.836824 12.5711 1.33172 14.0508C1.3759 14.1046 1.3759 14.1046 1.47057 14.0991C1.51331 14.099 1.55605 14.099 1.60008 14.099C1.67338 14.099 1.67338 14.099 1.74816 14.0991C1.80225 14.099 1.85634 14.0988 1.91206 14.0987C1.96865 14.0987 2.02523 14.0987 2.08353 14.0987C2.23916 14.0987 2.39478 14.0984 2.5504 14.0981C2.71286 14.0979 2.87533 14.0979 3.03779 14.0978C3.34565 14.0977 3.6535 14.0973 3.96136 14.0969C4.31175 14.0964 4.66214 14.0962 5.01254 14.096C5.73352 14.0955 6.4545 14.0947 7.17547 14.0938C7.17112 14.0189 7.16676 13.944 7.16237 13.8691C7.15852 13.8031 7.15469 13.7371 7.15089 13.6711C7.14157 13.511 7.13187 13.3509 7.12023 13.1909C7.08864 12.7424 7.08394 12.2967 7.08534 11.8473C7.08542 11.7703 7.08548 11.6932 7.08553 11.6162C7.08569 11.4159 7.08611 11.2155 7.08659 11.0152C7.08703 10.8098 7.08722 10.6044 7.08744 10.399C7.0879 9.99777 7.08863 9.59656 7.08954 9.19535C7.05425 9.17811 7.01896 9.16087 6.9826 9.14311C6.93624 9.12025 6.88989 9.09739 6.84213 9.07383C6.79621 9.05128 6.75028 9.02872 6.70296 9.00548C6.24308 8.76339 6.06445 8.38106 5.88641 7.90629C4.39754 7.90629 2.90868 7.90629 1.37469 7.90629ZM9.40985 7.90629C9.33895 8.07645 9.26805 8.2466 9.19501 8.42192C8.90498 8.85696 8.58121 9.05223 8.09527 9.23077C8.04409 9.25578 8.04409 9.25578 7.99188 9.28129C7.94236 9.42985 7.94315 9.54549 7.94267 9.70225C7.94253 9.73184 7.94238 9.76143 7.94223 9.79191C7.94182 9.89026 7.94174 9.98861 7.94169 10.087C7.94156 10.1562 7.94141 10.2255 7.94126 10.2948C7.941 10.4409 7.94092 10.587 7.94095 10.7331C7.94095 10.8806 7.94066 11.0281 7.94007 11.1755C7.93619 12.1523 7.93935 13.1245 8.07782 14.0938C9.55251 14.0938 11.0272 14.0938 12.5466 14.0938C12.6033 13.952 12.66 13.8102 12.7184 13.6641C13.0166 13.2065 13.3784 12.9174 13.9001 12.7591C13.9355 12.7458 13.971 12.7325 14.0075 12.7188C14.057 12.5702 14.0562 12.4546 14.0567 12.2978C14.0569 12.2682 14.057 12.2387 14.0572 12.2082C14.0576 12.1098 14.0576 12.0115 14.0577 11.9131C14.0578 11.8438 14.058 11.7745 14.0581 11.7053C14.0584 11.5592 14.0585 11.4131 14.0584 11.267C14.0584 11.1195 14.0587 10.972 14.0593 10.8245C14.0632 9.84774 14.06 8.87554 13.9216 7.90629C12.4327 7.90629 10.9438 7.90629 9.40985 7.90629ZM14.8239 7.90629C14.8283 7.9812 14.8326 8.05611 14.837 8.13101C14.8409 8.197 14.8447 8.26299 14.8485 8.32898C14.8578 8.48913 14.8675 8.64921 14.8792 8.80922C14.9107 9.25771 14.9154 9.70334 14.914 10.1528C14.914 10.2298 14.9139 10.3069 14.9139 10.3839C14.9137 10.5842 14.9133 10.7846 14.9128 10.9849C14.9124 11.1903 14.9122 11.3957 14.9119 11.6011C14.9115 12.0023 14.9108 12.4035 14.9098 12.8047C14.9395 12.8193 14.9692 12.8339 14.9997 12.8489C15.0385 12.8681 15.0774 12.8873 15.1173 12.9071C15.1751 12.9356 15.1751 12.9356 15.2341 12.9647C15.7005 13.2075 15.9138 13.629 16.113 14.0938C17.6018 14.0938 19.0907 14.0938 20.6247 14.0938C20.7787 13.6831 20.8787 13.2762 20.9684 12.8477C20.9758 12.8131 20.9831 12.7784 20.9907 12.7428C21.2989 11.2067 21.1626 9.42894 20.6677 7.94926C20.6235 7.89553 20.6235 7.89553 20.5288 7.901C20.4861 7.90104 20.4433 7.90108 20.3993 7.90112C20.326 7.90104 20.326 7.90104 20.2512 7.90095C20.1971 7.9011 20.143 7.90125 20.0873 7.90141C20.0307 7.90141 19.9742 7.9014 19.9159 7.90139C19.7602 7.90138 19.6046 7.90164 19.449 7.90194C19.2865 7.9022 19.1241 7.90223 18.9616 7.90228C18.6537 7.90241 18.3459 7.90277 18.038 7.9032C17.6876 7.90368 17.3372 7.90391 16.9868 7.90413C16.2659 7.90458 15.5449 7.90534 14.8239 7.90629ZM13.7067 13.836C13.5013 14.0426 13.4036 14.2249 13.3898 14.5154C13.3964 14.7765 13.4687 14.9682 13.6502 15.1576C13.9063 15.3856 14.0908 15.446 14.4353 15.4393C14.693 15.4128 14.8481 15.3144 15.0307 15.1358C15.2106 14.8685 15.284 14.6524 15.2382 14.3284C15.1577 14.0194 14.9647 13.8235 14.7004 13.656C14.3316 13.5151 14.0078 13.5951 13.7067 13.836ZM1.67547 14.9532C1.98504 15.6067 2.27992 16.222 2.70672 16.8008C2.72877 16.7946 2.75081 16.7884 2.77353 16.782C3.40865 16.6281 4.02224 16.6629 4.58661 17.0022C4.95136 17.2619 5.1894 17.6546 5.28485 18.0899C5.29009 18.2139 5.29301 18.3364 5.29291 18.4605C5.29293 18.4949 5.29296 18.5294 5.29299 18.5649C5.29076 18.8153 5.267 19.051 5.19891 19.293C6.35952 20.1607 7.77386 20.7213 9.19501 20.9688C9.13098 20.835 9.05797 20.7073 8.9837 20.579C8.02482 18.9108 7.59317 17.0375 7.32322 15.1466C7.30975 15.0396 7.30975 15.0396 7.26141 14.9532C5.41805 14.9532 3.57469 14.9532 1.67547 14.9532ZM8.20672 14.9532C8.23818 15.3621 8.28131 15.734 8.3598 16.1321C8.36536 16.1605 8.37091 16.1889 8.37664 16.2181C8.68764 17.7959 9.11687 19.9187 10.4765 20.9527C10.717 21.1047 10.9355 21.1315 11.2145 21.0977C11.8453 20.9058 12.2311 20.2298 12.5278 19.6851C13.0937 18.6025 13.3795 17.3885 13.6208 16.1993C13.5919 16.1825 13.5631 16.1658 13.5333 16.1485C13.4951 16.1261 13.4569 16.1036 13.4175 16.0804C13.3798 16.0584 13.3421 16.0363 13.3032 16.0136C12.8939 15.7502 12.7221 15.3919 12.5466 14.9532C11.1144 14.9532 9.68227 14.9532 8.20672 14.9532ZM16.113 14.9532C15.9641 15.2509 15.9641 15.2509 15.8122 15.5547C15.4641 16.0096 15.0414 16.2376 14.4802 16.3282C14.4715 16.3727 14.4715 16.3727 14.4626 16.4182C14.1588 17.9556 13.7547 19.604 12.8044 20.8829C12.8186 20.9112 12.8327 20.9396 12.8473 20.9688C14.4855 20.612 16.013 19.9796 17.3161 18.9063C17.3397 18.8871 17.3633 18.8678 17.3876 18.848C17.9607 18.3784 18.4996 17.8641 18.9489 17.2735C18.9666 17.2507 18.9843 17.228 19.0025 17.2045C19.4432 16.6357 19.8166 16.022 20.1413 15.3802C20.1557 15.3518 20.1701 15.3234 20.185 15.2942C20.245 15.1719 20.2809 15.0913 20.2809 14.9532C18.9055 14.9532 17.5301 14.9532 16.113 14.9532ZM2.84486 17.8296C2.61741 18.1215 2.58867 18.3681 2.62079 18.7344C2.69584 19.0227 2.88622 19.1875 3.13641 19.336C3.39747 19.423 3.71444 19.4262 3.96893 19.3145C4.18994 19.1858 4.34535 18.9748 4.42547 18.7344C4.45388 18.4201 4.45849 18.1299 4.2536 17.875C3.98109 17.6245 3.76566 17.5578 3.39741 17.5627C3.16251 17.5833 3.00468 17.6557 2.84486 17.8296Z" fill="white"/>
<path d="M3.55028 3.15732C3.71094 3.19241 3.77681 3.26015 3.86735 3.39449C3.92465 3.55924 3.91321 3.64164 3.86735 3.81075C3.75829 3.99138 3.68404 4.03114 3.48063 4.08199C3.31844 4.05725 3.21261 4.01706 3.07511 3.92892C2.97178 3.76772 2.97238 3.62311 3.00797 3.43746C3.11074 3.1839 3.2972 3.14111 3.55028 3.15732Z" fill="white"/>
</g>
<defs>
<clipPath id="clip0_2444_964">
<rect width="22" height="22" fill="white"/>
</clipPath>
</defs>
</svg>
